# xmcd CD database file
#
# Track frame offsets:
#	150
#	36666
#	76371
#	109120
#	158843
#	170254
#	184540
#	188769
#	197536
#	203266
#	228585
#	245290
#	249847
#	282460
#
# Disc length: 4234 seconds
#
# Revision: 2
# Processed by: cddbd v1.5.1PL0 Copyright (c) Steve Scherf et al.
# Submitted via: CDex 1.51
#
DISCID=b010880e
DTITLE=Chuck Mangione - Friends and Love A Chuck Mangione Concert
DYEAR=1970
DGENRE=Jazz
TTITLE0=Hill Where the Lord Hides
TTITLE1=The Feel of A Vision
TTITLE2=Songs From The Valley of The Nightengale
TTITLE3=And In The Begining
TTITLE4=Friends and Love Theme
TTITLE5=Someone Take Me Home
TTITLE6=Get Yourself on a Farm Elinda
TTITLE7=She's Gone
TTITLE8=Joropo Piropo
TTITLE9=Friends and Love Theme
TTITLE10=Friends and Love Theme
TTITLE11=Friends and Love Theme
TTITLE12=Friends and Love Encore
TTITLE13=Friends and Love Encore
EXTD=YEAR: 1970
EXTT0=
EXTT1=
EXTT2=
EXTT3=
EXTT4=
EXTT5=
EXTT6=
EXTT7=
EXTT8=
EXTT9=
EXTT10=
EXTT11=
EXTT12=
EXTT13=
PLAYORDER=
